<svg width="29" height="29" viewBox="0 0 29 29" fill="none" xmlns="http://www.w3.org/2000/svg">
<path d="M13.0341 3.74843C13.6325 2.53601 15.3614 2.536 15.9597 3.74843L18.809 9.52151L25.1799 10.4473C26.5179 10.6417 27.0521 12.286 26.084 13.2297L21.4738 17.7233L22.5622 24.0687C22.7907 25.4012 21.392 26.4174 20.1953 25.7882L14.4969 22.7924L8.79857 25.7882C7.60185 26.4174 6.20316 25.4012 6.43171 24.0687L7.52001 17.7233L2.90993 13.2297C1.94175 12.286 2.47601 10.6417 3.81399 10.4473L10.185 9.52151L13.0341 3.74843ZM14.4969 4.8799L11.7681 10.4091C11.5305 10.8906 11.0712 11.2243 10.5399 11.3015L4.43806 12.1881L8.85338 16.4921C9.23785 16.8668 9.41329 17.4066 9.32253 17.9359L8.28021 24.0131L13.7379 21.1438C14.2131 20.8939 14.7808 20.8939 15.256 21.1438L20.7137 24.0131L19.6714 17.9359C19.5806 17.4066 19.7561 16.8668 20.1404 16.4921L24.5558 12.1881L18.454 11.3015C17.9227 11.2243 17.4634 10.8906 17.2258 10.4091L14.4969 4.8799Z" fill="#24FF00"/>
</svg>
