<svg width="31" height="27" viewBox="0 0 31 27" fill="none" xmlns="http://www.w3.org/2000/svg">
<path d="M16.6803 2.43147L15.4151 3.6995L14.1458 2.43033C10.9098 -0.805741 5.6631 -0.805741 2.42705 2.43033C-0.809017 5.66638 -0.809017 10.9131 2.42705 14.1492L14.599 26.3211C15.0506 26.7727 15.7827 26.7727 16.2343 26.3211L28.4156 14.1469C31.6445 10.9001 31.65 5.66812 28.4135 2.43147C25.1715 -0.810489 19.9223 -0.810489 16.6803 2.43147ZM26.7759 12.5162L15.4166 23.8685L4.06223 12.5139C1.72925 10.1809 1.72925 6.39848 4.06223 4.06551C6.39521 1.73252 10.1777 1.73252 12.5107 4.06551L14.6034 6.15823C15.0626 6.61745 15.8099 6.60849 16.2579 6.13842L18.3155 4.06665C20.6544 1.72779 24.4394 1.72779 26.7782 4.06665C29.1118 6.40019 29.1078 10.1715 26.7759 12.5162Z" fill="white"/>
</svg>
