<svg width="52" height="37" viewBox="0 0 52 37" fill="none" xmlns="http://www.w3.org/2000/svg">
<g opacity="0.6">
<path d="M13.1568 5.86476L13.5644 5.45724L13.1488 5.05802C12.1218 4.07165 10.7375 3.31104 8.81156 3.31104C5.33696 3.31104 2.4082 6.13907 2.4082 9.63393C2.4082 13.1289 5.33696 15.9568 8.81156 15.9568C10.672 15.9568 12.1075 15.3402 13.2347 14.1736C14.4167 12.989 14.7572 11.3597 14.7572 10.0978C14.7572 9.70381 14.724 9.32561 14.6596 9.00365L14.5688 8.54961H8.24673V11.2564H11.8843C11.7545 11.7057 11.5589 12.0311 11.3201 12.2702C10.8466 12.7381 10.1285 13.2563 8.81156 13.2563C6.81399 13.2563 5.24487 11.6513 5.24487 9.63393C5.24487 7.61666 6.81399 6.01164 8.81156 6.01164C9.89316 6.01164 10.6756 6.43391 11.2644 6.98487L11.6634 7.35821L12.0498 6.97185L13.1568 5.86476Z" fill="#EFEFEF" stroke="#EFEFEF" stroke-width="1.12966"/>
<path d="M18.7261 15.9507C21.0525 15.9507 22.9462 14.1288 22.9462 11.6812C22.9462 9.21997 21.0513 7.41162 18.7261 7.41162C16.4011 7.41162 14.5061 9.21997 14.5061 11.6812C14.5061 14.1288 16.3998 15.9507 18.7261 15.9507ZM18.7261 10.0009C19.4898 10.0009 20.2147 10.6312 20.2147 11.6812C20.2147 12.7208 19.4877 13.3614 18.7261 13.3614C17.9656 13.3614 17.2376 12.7157 17.2376 11.6812C17.2376 10.6363 17.9635 10.0009 18.7261 10.0009Z" fill="#EFEFEF" stroke="#EFEFEF" stroke-width="1.12966"/>
<path d="M26.924 13.3614H26.9208C26.1603 13.3614 25.4323 12.7157 25.4323 11.6812C25.4323 10.6363 26.1583 10.0009 26.9208 10.0009C27.6844 10.0009 28.4094 10.6312 28.4094 11.6812C28.4094 12.7239 27.6804 13.3657 26.924 13.3614ZM26.9147 15.9507C29.241 15.9507 31.1347 14.1288 31.1347 11.6812C31.1347 9.21997 29.2397 7.41162 26.9147 7.41162C24.5895 7.41162 22.6946 9.21997 22.6946 11.6812C22.6946 14.1294 24.5951 15.9507 26.9147 15.9507Z" fill="#EFEFEF" stroke="#EFEFEF" stroke-width="1.12966"/>
<path d="M39.1257 8.1992V7.63439H36.4499V7.72667C36.0357 7.52952 35.5445 7.40555 35.0046 7.40555C32.8329 7.40555 30.8896 9.30181 30.8896 11.6937C30.8896 13.2954 31.7663 14.6668 33.0008 15.3942L32.9513 15.4148L31.535 16.0023L31.0132 16.2188L31.2297 16.7405C31.6988 17.8705 32.945 19.2783 35.0356 19.2783C36.0978 19.2783 37.1345 18.9661 37.9079 18.2169C38.686 17.4631 39.1257 16.3368 39.1257 14.8541V8.1992ZM33.6888 15.7185C34.1069 15.8695 34.5506 15.9508 35.0046 15.9508C35.5173 15.9508 35.988 15.8403 36.3911 15.6578C36.3251 15.9508 36.209 16.1631 36.0708 16.3116C35.8591 16.5392 35.5285 16.689 35.0356 16.689C34.3488 16.689 33.8908 16.2013 33.6888 15.7185ZM35.1469 10.001C35.879 10.001 36.5612 10.6399 36.5612 11.6998C36.5612 12.7388 35.8867 13.3677 35.1469 13.3677C34.3615 13.3677 33.6459 12.7097 33.6459 11.6998C33.6459 10.664 34.3685 10.001 35.1469 10.001ZM41.9768 4.27186V3.70703H39.2205V15.7344H41.9768V4.27186Z" fill="#EFEFEF" stroke="#EFEFEF" stroke-width="1.12966"/>
<path d="M48.133 12.436L47.6673 12.1255L47.3526 12.5883C47.009 13.0936 46.5918 13.3739 45.9951 13.3739C45.6708 13.3739 45.4231 13.3001 45.2272 13.1765C45.1745 13.1433 45.123 13.1049 45.0731 13.0608L49.3657 11.2816L49.8797 11.0685L49.6744 10.5513L49.5095 10.1361C49.1685 9.22668 48.0862 7.41797 45.8096 7.41797C43.5629 7.41797 41.7998 9.19799 41.7998 11.6875C41.7998 14.0579 43.5487 15.9571 45.9889 15.9571C47.9503 15.9571 49.085 14.7528 49.5498 14.0626L49.8669 13.5919L49.3947 13.2771L48.133 12.436ZM46.2 10.0183L44.7425 10.6219C45.0283 10.1894 45.5036 9.97632 45.8653 9.97632C45.9898 9.97632 46.1015 9.99191 46.2 10.0183Z" fill="#EFEFEF" stroke="#EFEFEF" stroke-width="1.12966"/>
</g>
<path d="M8.81216 15.3921C5.6393 15.3921 2.97363 12.8069 2.97363 9.63404C2.97363 6.46124 5.6393 3.87598 8.81216 3.87598C10.5686 3.87598 11.8179 4.5625 12.758 5.46548L11.651 6.57257C10.9768 5.94172 10.0615 5.44693 8.81216 5.44693C6.49281 5.44693 4.68065 7.31474 4.68065 9.63404C4.68065 11.9534 6.49281 13.8212 8.81216 13.8212C10.3151 13.8212 11.1685 13.2151 11.719 12.6709C12.1705 12.2193 12.4612 11.5761 12.5725 10.6917H8.81216V9.11455H14.1063C14.162 9.39282 14.1929 9.733 14.1929 10.098C14.1929 11.2792 13.8714 12.7389 12.8323 13.7779C11.8179 14.8293 10.5315 15.3921 8.81216 15.3921Z" fill="#4285F4"/>
<path d="M22.3817 11.6813C22.3817 13.8151 20.7428 15.386 18.7265 15.386C16.7103 15.386 15.0713 13.8151 15.0713 11.6813C15.0713 9.53511 16.7103 7.97656 18.7265 7.97656C20.7428 7.97656 22.3817 9.53511 22.3817 11.6813ZM20.7799 11.6813C20.7799 10.3454 19.8274 9.43615 18.7265 9.43615C17.6256 9.43615 16.6731 10.3515 16.6731 11.6813C16.6731 12.9986 17.6256 13.9264 18.7265 13.9264C19.8274 13.9264 20.7799 13.0048 20.7799 11.6813Z" fill="#E94235"/>
<path d="M30.5702 11.6813C30.5702 13.8151 28.9312 15.386 26.915 15.386C24.9049 15.386 23.2598 13.8151 23.2598 11.6813C23.2598 9.53511 24.8987 7.97656 26.915 7.97656C28.9312 7.97656 30.5702 9.53511 30.5702 11.6813ZM28.9745 11.6813C28.9745 10.3454 28.0221 9.43615 26.9212 9.43615C25.8203 9.43615 24.8678 10.3515 24.8678 11.6813C24.8678 12.9986 25.8203 13.9264 26.9212 13.9264C28.0221 13.9326 28.9745 13.0048 28.9745 11.6813Z" fill="#FABB05"/>
<path d="M38.5615 8.19901V14.8539C38.5615 17.5938 36.9472 18.7132 35.0362 18.7132C33.2363 18.7132 32.1602 17.5072 31.752 16.5238L33.1683 15.9362C33.4219 16.5423 34.0404 17.2536 35.0362 17.2536C36.2607 17.2536 37.0153 16.4929 37.0153 15.0766V14.5447H36.9596C36.5947 14.9961 35.8897 15.3858 35.0052 15.3858C33.1498 15.3858 31.4551 13.7716 31.4551 11.6935C31.4551 9.60302 33.156 7.97021 35.0052 7.97021C35.8897 7.97021 36.5947 8.36605 36.9596 8.79893H37.0153V8.19901H38.5615ZM37.1266 11.6997C37.1266 10.3947 36.2545 9.43598 35.1475 9.43598C34.0218 9.43598 33.0817 10.3884 33.0817 11.6997C33.0817 12.9923 34.0218 13.9324 35.1475 13.9324C36.2545 13.9324 37.1266 12.9923 37.1266 11.6997Z" fill="#4285F4"/>
<path d="M41.4118 4.27148V15.1692H39.7852V4.27148H41.4118Z" fill="#34A853"/>
<path d="M47.8193 12.9055L49.081 13.7467C48.6728 14.3528 47.6895 15.3919 45.9886 15.3919C43.8796 15.3919 42.3643 13.7653 42.3643 11.6872C42.3643 9.48532 43.8981 7.98242 45.8093 7.98242C47.7327 7.98242 48.6728 9.51009 48.9821 10.3389L49.149 10.7594L44.195 12.8128C44.5723 13.555 45.166 13.9384 45.9947 13.9384C46.8235 13.9384 47.3988 13.5241 47.8193 12.9055ZM43.9291 11.5696L47.2441 10.1966C47.0586 9.73271 46.5143 9.41113 45.8649 9.41113C45.0361 9.41113 43.8858 10.141 43.9291 11.5696Z" fill="#E94235"/>
</svg>
