<svg width="19" height="14" viewBox="0 0 19 14" fill="none" xmlns="http://www.w3.org/2000/svg">
<g clip-path="url(#clip0_19_43)">
<path d="M18.2594 1.14781C17.5736 0.33255 16.3073 0 13.8891 0H5.11076C2.63714 0 1.34943 0.354001 0.666165 1.22196C0 2.06823 0 3.31514 0 5.04089V8.33017C0 11.6735 0.7904 13.371 5.11076 13.371H13.8891C15.9862 13.371 17.1483 13.0776 17.9001 12.3581C18.6711 11.6203 19 10.4157 19 8.33017V5.04089C19 3.22094 18.9485 1.96668 18.2594 1.14781ZM12.1981 7.13965L8.21186 9.22289C8.12275 9.26947 8.02529 9.29258 7.92796 9.29258C7.81776 9.29258 7.70781 9.26291 7.61042 9.20395C7.42704 9.09284 7.31506 8.89408 7.31506 8.67969V4.52656C7.31506 4.31254 7.42673 4.11397 7.60975 4.00279C7.79282 3.89162 8.02051 3.88402 8.21045 3.98269L12.1967 6.05251C12.3995 6.15781 12.5268 6.36717 12.5271 6.59559C12.5274 6.8242 12.4006 7.03386 12.1981 7.13965Z" fill="#EFEFEF"/>
</g>
<defs>
<clipPath id="clip0_19_43">
<rect width="19" height="14" fill="white"/>
</clipPath>
</defs>
</svg>
