<svg width="21" height="12" viewBox="0 0 21 12" fill="none" xmlns="http://www.w3.org/2000/svg">
<g clip-path="url(#clip0_45_26)">
<path d="M20.8938 10.3053C20.8696 10.2531 20.847 10.2098 20.826 10.1751C20.479 9.55017 19.8159 8.78308 18.8371 7.87364L18.8164 7.85281L18.8061 7.8426L18.7956 7.83213H18.7851C18.3408 7.40865 18.0595 7.12391 17.9417 6.97813C17.7262 6.70043 17.6779 6.41933 17.7957 6.13452C17.8789 5.91933 18.1916 5.46488 18.7329 4.77056C19.0176 4.40258 19.2431 4.10767 19.4097 3.88548C20.6108 2.28871 21.1315 1.26835 20.9717 0.82401L20.9097 0.720173C20.868 0.657659 20.7604 0.60047 20.587 0.548314C20.4133 0.496268 20.1912 0.487661 19.9204 0.522346L16.9215 0.543062C16.8729 0.525847 16.8035 0.527452 16.7132 0.548314C16.6229 0.569176 16.5777 0.579644 16.5777 0.579644L16.5255 0.605722L16.4841 0.637052C16.4494 0.657768 16.4112 0.694205 16.3695 0.746287C16.328 0.798188 16.2934 0.859096 16.2656 0.928504C15.9391 1.7685 15.5679 2.54949 15.1513 3.27143C14.8944 3.70191 14.6585 4.07499 14.4431 4.39088C14.2279 4.70666 14.0474 4.93931 13.9017 5.08845C13.7558 5.23773 13.6242 5.35733 13.5059 5.44767C13.3879 5.53805 13.2978 5.57623 13.2353 5.56226C13.1728 5.5483 13.1139 5.53444 13.0581 5.52058C12.961 5.45806 12.8829 5.37305 12.824 5.26545C12.7648 5.15786 12.725 5.02244 12.7042 4.85929C12.6834 4.69604 12.6712 4.55562 12.6677 4.43756C12.6644 4.31965 12.6659 4.15286 12.673 3.93767C12.6802 3.72237 12.6834 3.5767 12.6834 3.50033C12.6834 3.23649 12.6886 2.95014 12.6989 2.64122C12.7094 2.33229 12.7179 2.08753 12.725 1.90721C12.7321 1.7267 12.7354 1.53574 12.7354 1.33441C12.7354 1.13308 12.7231 0.975188 12.6989 0.860592C12.675 0.746141 12.6383 0.635046 12.5899 0.527342C12.5412 0.419749 12.4699 0.336518 12.3764 0.277433C12.2827 0.21842 12.1662 0.171589 12.0276 0.136795C11.6596 0.0535279 11.191 0.00848438 10.6216 0.00148165C9.33045 -0.0123779 8.50081 0.0709981 8.13287 0.251501C7.98709 0.327765 7.85517 0.431967 7.73722 0.563778C7.61223 0.716562 7.5948 0.799938 7.68503 0.813652C8.10162 0.876057 8.39653 1.02534 8.57011 1.26135L8.63266 1.38642C8.68131 1.47665 8.72989 1.6364 8.77851 1.86545C8.82706 2.09449 8.85839 2.34787 8.87217 2.62542C8.90682 3.13228 8.90682 3.56616 8.87217 3.92709C8.83741 4.28817 8.80459 4.56926 8.77326 4.77059C8.74193 4.97192 8.6951 5.13506 8.63266 5.25998C8.57011 5.38494 8.52849 5.46131 8.50763 5.48903C8.4868 5.51675 8.46944 5.53422 8.45566 5.54107C8.36542 5.57565 8.27158 5.59327 8.17445 5.59327C8.07718 5.59327 7.95923 5.54461 7.82041 5.44738C7.68164 5.35014 7.53761 5.21658 7.38832 5.04647C7.23904 4.87633 7.07069 4.63856 6.88318 4.33314C6.69582 4.02772 6.50142 3.66675 6.30009 3.25024L6.13352 2.94817C6.02939 2.75384 5.88715 2.47089 5.70665 2.09956C5.52604 1.72809 5.3664 1.36876 5.22762 1.02165C5.17214 0.875874 5.0888 0.764888 4.97775 0.688515L4.92563 0.657185C4.89098 0.629466 4.83536 0.600032 4.75906 0.568666C4.68265 0.537336 4.60292 0.514869 4.51954 0.501045L1.66633 0.521762C1.37477 0.521762 1.17694 0.587814 1.07277 0.719735L1.03109 0.782139C1.01026 0.816898 0.999756 0.872409 0.999756 0.948819C0.999756 1.02519 1.02058 1.11893 1.06227 1.22991C1.47879 2.20884 1.93174 3.15293 2.42113 4.06233C2.91052 4.97174 3.33579 5.70429 3.69668 6.25933C4.05765 6.81477 4.42559 7.33899 4.80049 7.83173C5.17539 8.32466 5.42355 8.64055 5.54497 8.77932C5.66653 8.91836 5.76201 9.0223 5.83142 9.09171L6.0918 9.34158C6.25841 9.50823 6.50306 9.7078 6.82588 9.94032C7.14877 10.173 7.50624 10.402 7.89847 10.6278C8.29076 10.8533 8.74715 11.0372 9.26786 11.1795C9.78851 11.3219 10.2953 11.3791 10.7882 11.3515H11.9858C12.2286 11.3305 12.4126 11.2542 12.5377 11.1224L12.5791 11.0702C12.607 11.0287 12.6331 10.9644 12.6571 10.8777C12.6815 10.791 12.6936 10.6954 12.6936 10.5914C12.6865 10.2929 12.7092 10.0239 12.7612 9.78447C12.8131 9.54506 12.8722 9.36456 12.9384 9.243C13.0045 9.12155 13.0791 9.01906 13.1622 8.93597C13.2454 8.85271 13.3047 8.80227 13.3395 8.7849C13.3741 8.76743 13.4017 8.75558 13.4225 8.74847C13.5891 8.69296 13.7852 8.74672 14.011 8.91C14.2367 9.07315 14.4484 9.27458 14.6463 9.51399C14.8442 9.75361 15.0819 10.0225 15.3595 10.3209C15.6374 10.6195 15.8803 10.8414 16.0884 10.9874L16.2966 11.1124C16.4357 11.1957 16.6162 11.2721 16.8384 11.3415C17.0602 11.4109 17.2545 11.4283 17.4213 11.3936L20.087 11.352C20.3507 11.352 20.5558 11.3083 20.7013 11.2217C20.8472 11.1349 20.9338 11.0393 20.9617 10.9354C20.9896 10.8313 20.9911 10.7132 20.967 10.5811C20.9423 10.4494 20.918 10.3573 20.8938 10.3053Z" fill="#A1B8CB"/>
</g>
<defs>
<clipPath id="clip0_45_26">
<rect width="20.0104" height="12" fill="white" transform="translate(0.927002)"/>
</clipPath>
</defs>
</svg>
