<svg width="20" height="15" viewBox="0 0 20 15" fill="none" xmlns="http://www.w3.org/2000/svg">
<g clip-path="url(#clip0_45_24)">
<path d="M19.7316 1.73609C19.0235 2.04068 18.3152 2.2309 17.6074 2.3073C18.4068 1.82762 18.9476 1.14995 19.2294 0.274347C18.498 0.708269 17.7177 1.00514 16.8879 1.16511C16.1568 0.388478 15.2585 0 14.1923 0C13.1721 0 12.3023 0.359715 11.5824 1.0793C10.863 1.79885 10.5033 2.6687 10.5033 3.68896C10.5033 3.96302 10.5337 4.24485 10.5947 4.53416C9.08699 4.45803 7.67269 4.07924 6.35153 3.39777C5.03044 2.71622 3.90925 1.80822 2.98797 0.673746C2.65293 1.24468 2.48536 1.86534 2.48536 2.53537C2.48536 3.16735 2.63381 3.75372 2.93092 4.29434C3.22783 4.83487 3.62767 5.27263 4.13023 5.6077C3.53622 5.58482 2.9804 5.42869 2.46272 5.13934V5.18502C2.46272 6.07595 2.74254 6.85815 3.30212 7.53221C3.86177 8.2062 4.56804 8.63044 5.42076 8.80565C5.10093 8.8893 4.77726 8.93119 4.4499 8.93119C4.23668 8.93119 4.00442 8.91218 3.7532 8.87438C3.98922 9.61281 4.42326 10.2198 5.05516 10.696C5.68718 11.1718 6.40293 11.4171 7.20245 11.4327C5.8624 12.4833 4.33577 13.0086 2.62257 13.0086C2.2951 13.0086 1.99824 12.9937 1.73169 12.9631C3.44493 14.067 5.33323 14.619 7.39671 14.619C8.70635 14.619 9.93607 14.4117 11.0854 13.9966C12.2354 13.5818 13.2175 13.0259 14.0323 12.329C14.8469 11.6324 15.5494 10.831 16.1395 9.92492C16.7295 9.0188 17.1691 8.07282 17.4587 7.08681C17.7479 6.10059 17.8926 5.11286 17.8926 4.12284C17.8926 3.90962 17.8888 3.7498 17.8811 3.64315C18.6047 3.11802 19.2214 2.48212 19.7316 1.73609Z" fill="#A1B8CB"/>
</g>
<defs>
<clipPath id="clip0_45_24">
<rect width="19.0099" height="15" fill="white" transform="translate(0.901611)"/>
</clipPath>
</defs>
</svg>
