<svg width="11" height="18" viewBox="0 0 11 18" fill="none" xmlns="http://www.w3.org/2000/svg">
<g clip-path="url(#clip0_45_22)">
<path d="M10.3652 0.0037452L8.03106 0C5.40867 0 3.71396 1.73871 3.71396 4.42982V6.47227H1.36703C1.16423 6.47227 1 6.63668 1 6.83949V9.79876C1 10.0016 1.16442 10.1658 1.36703 10.1658H3.71396V17.633C3.71396 17.8358 3.87819 18 4.08099 18H7.14307C7.34587 18 7.5101 17.8356 7.5101 17.633V10.1658H10.2542C10.457 10.1658 10.6212 10.0016 10.6212 9.79876L10.6224 6.83949C10.6224 6.74211 10.5836 6.64886 10.5149 6.57994C10.4461 6.51103 10.3525 6.47227 10.2551 6.47227H7.5101V4.74086C7.5101 3.90868 7.70841 3.48622 8.79246 3.48622L10.3649 3.48566C10.5675 3.48566 10.7317 3.32124 10.7317 3.11863V0.370775C10.7317 0.168347 10.5677 0.00411972 10.3652 0.0037452Z" fill="#A1B8CB"/>
</g>
<defs>
<clipPath id="clip0_45_22">
<rect width="10.0052" height="18" fill="white" transform="translate(0.880859)"/>
</clipPath>
</defs>
</svg>
