<svg width="20" height="14" viewBox="0 0 20 14" fill="none" xmlns="http://www.w3.org/2000/svg">
<g clip-path="url(#clip0_45_28)">
<path d="M19.2596 1.14781C18.5738 0.33255 17.3075 0 14.8893 0H6.111C3.63738 0 2.34967 0.354001 1.66641 1.22196C1.00024 2.06823 1.00024 3.31514 1.00024 5.04089V8.33017C1.00024 11.6735 1.79064 13.371 6.111 13.371H14.8893C16.9864 13.371 18.1485 13.0776 18.9003 12.3581C19.6713 11.6203 20.0002 10.4157 20.0002 8.33017V5.04089C20.0002 3.22094 19.9487 1.96668 19.2596 1.14781ZM13.1983 7.13965L9.2121 9.22289C9.12299 9.26947 9.02553 9.29258 8.9282 9.29258C8.818 9.29258 8.70805 9.26291 8.61066 9.20395C8.42728 9.09284 8.3153 8.89408 8.3153 8.67969V4.52656C8.3153 4.31254 8.42697 4.11397 8.60999 4.00279C8.79306 3.89162 9.02075 3.88402 9.21069 3.98269L13.1969 6.05251C13.3997 6.15781 13.527 6.36717 13.5273 6.59559C13.5276 6.8242 13.4008 7.03386 13.1983 7.13965Z" fill="#A1B8CB"/>
</g>
<defs>
<clipPath id="clip0_45_28">
<rect width="19.0099" height="14" fill="white" transform="translate(0.855225)"/>
</clipPath>
</defs>
</svg>
