<svg width="161" height="35" viewBox="0 0 161 35" fill="none" xmlns="http://www.w3.org/2000/svg">
<g clip-path="url(#clip0_45_30)">
<path d="M8.53906 0.382812H15.7741V2.31529H13.3721V29.7032H11.2176V2.31529H8.53906V0.382812Z" fill="#EFEFEF"/>
<path d="M26.0863 4.41504C26.1251 4.41504 26.1445 4.59275 26.1445 4.94815C26.1445 5.30355 26.1397 5.65894 26.13 6.01433V6.53077C25.3633 6.53077 24.6839 6.70847 24.0919 7.06387C23.5096 7.40816 22.9371 8.03566 22.3742 8.94637V29.7038H20.2051V4.71491H22.3742V7.49701C22.6265 6.51966 23.0681 5.76444 23.6989 5.23135C24.3394 4.68715 25.1352 4.41504 26.0863 4.41504Z" fill="#EFEFEF"/>
<path d="M30.707 4.71451H32.8906V29.7034H30.707V4.71451ZM30.707 0.0166016H32.876V2.41553H30.707V0.0166016Z" fill="#EFEFEF"/>
<path d="M45.4163 12.0279C45.4163 10.0732 45.3435 8.8571 45.1979 8.37954C45.0621 7.89087 44.8971 7.47438 44.703 7.13009C44.5089 6.7858 44.1886 6.61366 43.7422 6.61366C43.2958 6.61366 42.9658 6.64697 42.7523 6.71361C42.2282 6.8802 41.8449 7.36332 41.6022 8.16297C41.3596 8.95151 41.2383 10.2509 41.2383 12.0612V21.9901C41.2383 24.1114 41.3839 25.6107 41.675 26.4881C41.9759 27.3544 42.5388 27.7875 43.3637 27.7875C44.1886 27.7875 44.737 27.3544 45.0087 26.4881C45.2804 25.6218 45.4163 24.0947 45.4163 21.9068V12.0279ZM41.2383 6.63032C41.7527 5.23094 42.7183 4.53125 44.1352 4.53125C45.1252 4.53125 45.8676 4.90886 46.3625 5.66408C46.8672 6.40819 47.1972 7.37443 47.3524 8.56279C47.5077 9.74004 47.5854 11.1616 47.5854 12.8275V21.7902C47.5854 21.8235 47.5854 21.8624 47.5854 21.9068C47.5854 25.0499 47.2263 27.1878 46.5081 28.3206C45.7899 29.4424 44.8097 30.0032 43.5675 30.0032C43.0726 30.0032 42.6067 29.8033 42.17 29.4035C41.743 28.9926 41.4324 28.4928 41.2383 27.9042V34.1181H39.0693V4.7145H41.2383V6.63032Z" fill="#EFEFEF"/>
<path d="M62.0378 5.01438L62.0524 5.69741C62.0524 6.89687 62.5958 9.02926 63.6828 12.0945C64.4301 11.0283 65.0027 9.98439 65.4006 8.96262C65.8082 7.92975 66.012 6.78026 66.012 5.51415C66.012 4.24805 65.8907 3.34845 65.648 2.81535C65.4054 2.27115 64.8328 1.99905 63.9303 1.99905C62.756 1.99905 62.1349 2.77093 62.0669 4.31469C62.0572 4.55902 62.0475 4.72006 62.0378 4.79781C62.0378 4.86444 62.0378 4.93663 62.0378 5.01438ZM68.2975 23.6227C69.6756 26.9324 70.5102 28.9592 70.8014 29.7034H68.9963C68.7439 29.0148 68.2296 27.7598 67.4532 25.9384C66.9679 27.1934 66.4681 28.093 65.9538 28.6372C65.4394 29.1814 64.925 29.5479 64.4107 29.7367C63.906 29.9366 63.3237 30.0365 62.6638 30.0365C61.3439 30.0365 60.2763 29.5146 59.4611 28.4706C58.6459 27.4266 58.2383 25.9939 58.2383 24.1725C58.2383 22.3511 58.3984 21.0017 58.7187 20.1243C59.0487 19.2469 59.3592 18.475 59.6504 17.8086C59.9415 17.1423 60.8441 15.8318 62.3581 13.8771C60.7373 9.72339 59.927 6.98572 59.927 5.66409C59.927 1.8991 61.3148 0.0166016 64.0904 0.0166016C65.7111 0.0166016 66.7738 0.505273 67.2785 1.48261C67.7928 2.45996 68.05 3.82602 68.05 5.58079C68.05 7.33557 67.7104 8.86822 67.031 10.1787C66.3614 11.4781 65.517 12.8497 64.498 14.2935C65.1871 16.115 66.1139 18.4028 67.2785 21.1572C68.0646 19.2691 68.9283 17.692 69.8697 16.4259L70.8742 18.2085C70.0007 19.4524 69.1418 21.2571 68.2975 23.6227ZM66.3759 23.4395C64.959 20.1743 63.9157 17.7254 63.2461 16.0927C62.4309 17.3366 61.7612 18.5972 61.2371 19.8744C60.7131 21.1516 60.4462 22.6121 60.4365 24.2558C60.4365 26.7214 61.2663 27.9541 62.9258 27.9541C63.8381 27.9541 64.6048 27.3433 65.2259 26.1216C65.5364 25.4886 65.9198 24.5945 66.3759 23.4395Z" fill="#EFEFEF"/>
<path d="M91.281 0.382812H93.7121V29.7032H91.7469V17.1421L92.0817 5.33061L88.4278 29.0701H86.3606L82.5757 5.33061L82.9105 17.1421V29.7032H80.9307V0.382812H83.3618L87.3942 25.0052L91.281 0.382812Z" fill="#EFEFEF"/>
<path d="M99.8896 4.71451H102.074V29.7034H99.8896V4.71451ZM99.8896 0.0166016H102.059V2.41553H99.8896V0.0166016Z" fill="#EFEFEF"/>
<path d="M110.421 7.16339C110.615 6.41928 111.042 5.77512 111.702 5.23092C112.372 4.67561 113.158 4.39795 114.06 4.39795C114.963 4.39795 115.705 4.82554 116.288 5.68072C116.87 6.53589 117.161 7.81866 117.161 9.52901V29.7034H114.992V9.3291C114.992 8.36286 114.798 7.66872 114.41 7.24669C114.031 6.81355 113.522 6.59698 112.881 6.59698C111.241 6.59698 110.421 7.52434 110.421 9.37907V29.7034H108.252V4.71448H110.421V7.16339Z" fill="#EFEFEF"/>
<path d="M129.089 12.4278C129.089 10.2843 128.944 8.78498 128.653 7.92981C128.371 7.06353 127.818 6.63039 126.993 6.63039C126.168 6.63039 125.615 7.07463 125.334 7.96313C125.052 8.84051 124.911 10.3676 124.911 12.5444V22.44C124.911 24.7279 125.067 26.1939 125.377 26.8381C125.697 27.4822 126.168 27.8043 126.789 27.8043C127.41 27.8043 127.852 27.6766 128.114 27.4211C128.386 27.1546 128.614 26.7159 128.798 26.1051C128.992 25.4831 129.089 24.2725 129.089 22.4733V12.4278ZM129.075 0H131.258V29.7035H129.075V27.8043C128.57 29.1926 127.604 29.8867 126.178 29.8867C124.557 29.8756 123.528 28.7705 123.092 26.5715C122.849 25.3609 122.728 23.7339 122.728 21.6904V12.9109C122.728 9.55686 123.077 7.30231 123.776 6.14727C124.484 4.99222 125.479 4.4147 126.76 4.4147C127.255 4.4147 127.711 4.62017 128.129 5.0311C128.556 5.43092 128.871 5.91959 129.075 6.49711V0Z" fill="#EFEFEF"/>
<path fill-rule="evenodd" clip-rule="evenodd" d="M154.384 8.01474L160.709 15.2522C161.097 15.6964 161.097 16.4165 160.709 16.8606L154.384 24.0982C153.996 24.5423 153.367 24.5423 152.979 24.0982C152.591 23.654 152.591 22.9339 152.979 22.4898L157.607 17.1937H140.13V14.9192H157.607L152.979 9.62309C152.591 9.17896 152.591 8.45888 152.979 8.01474C153.367 7.57061 153.996 7.57061 154.384 8.01474Z" fill="#EFC224"/>
<path d="M4.97516 14.9189H1V17.1935H4.97516V14.9189Z" fill="#EFC224"/>
</g>
<defs>
<clipPath id="clip0_45_30">
<rect width="160.083" height="35" fill="white" transform="translate(0.0625)"/>
</clipPath>
</defs>
</svg>
