<svg width="30" height="30" viewBox="0 0 30 30" fill="none" xmlns="http://www.w3.org/2000/svg">
<path d="M7.30348 5.69887C11.554 1.44836 18.4455 1.44836 22.696 5.69887C26.8615 9.86437 26.9447 16.5662 22.9459 20.8331L22.696 21.0914C21.5522 22.2351 19.6392 24.1036 16.9549 26.699C15.8646 27.7531 14.1349 27.753 13.0447 26.6986L8.2326 22.0129C7.87732 21.6626 7.56762 21.3555 7.30348 21.0914C3.05297 16.8409 3.05297 9.94938 7.30348 5.69887ZM21.3701 7.0247C17.8519 3.50641 12.1476 3.50641 8.62931 7.0247C5.11102 10.543 5.11102 16.2472 8.62931 19.7655L10.7495 21.8555C11.7281 22.8117 12.9277 23.977 14.3482 25.3509C14.7116 25.7024 15.2881 25.7024 15.6516 25.351L19.3696 21.7391C20.1927 20.9339 20.8596 20.276 21.3701 19.7655C24.8884 16.2472 24.8884 10.543 21.3701 7.0247ZM18.6825 9.51642L18.7876 9.60718C19.1205 9.94002 19.1507 10.4608 18.8784 10.8279L18.7876 10.933L16.326 13.3951L18.7876 15.8572C19.1205 16.19 19.1507 16.7109 18.8784 17.0779L18.7876 17.183C18.4547 17.5159 17.934 17.5461 17.567 17.2737L17.4617 17.183L14.9997 14.7214L12.5376 17.183C12.2048 17.5159 11.684 17.5461 11.3169 17.2737L11.2118 17.183C10.879 16.8501 10.8487 16.3294 11.121 15.9624L11.2118 15.8572L13.6735 13.3951L11.2118 10.933C10.879 10.6002 10.8487 10.0793 11.121 9.71233L11.2118 9.60718C11.5446 9.27436 12.0655 9.2441 12.4325 9.51642L12.5376 9.60718L14.9997 12.0688L17.4617 9.60718C17.7946 9.27436 18.3155 9.2441 18.6825 9.51642Z" fill="#212121"/>
</svg>
