<svg width="160" height="35" viewBox="0 0 160 35" fill="none" xmlns="http://www.w3.org/2000/svg">
<g clip-path="url(#clip0_275_4)">
<path d="M7.53906 0.383179H14.7741V2.31566H12.3721V29.7035H10.2176V2.31566H7.53906V0.383179Z" fill="black"/>
<path d="M25.0866 4.41467C25.1254 4.41467 25.1448 4.59237 25.1448 4.94777C25.1448 5.30317 25.14 5.65857 25.1303 6.01396V6.5304C24.3636 6.5304 23.6842 6.7081 23.0922 7.0635C22.5099 7.40779 21.9374 8.03529 21.3745 8.94599V29.7035H19.2054V4.71454H21.3745V7.49664C21.6268 6.51929 22.0684 5.76407 22.6992 5.23098C23.3397 4.68678 24.1355 4.41467 25.0866 4.41467Z" fill="black"/>
<path d="M29.7072 4.71457H31.8908V29.7035H29.7072V4.71457ZM29.7072 0.0166626H31.8762V2.41559H29.7072V0.0166626Z" fill="black"/>
<path d="M44.416 12.028C44.416 10.0733 44.3432 8.85716 44.1976 8.3796C44.0618 7.89093 43.8968 7.47444 43.7027 7.13015C43.5086 6.78586 43.1883 6.61372 42.7419 6.61372C42.2955 6.61372 41.9655 6.64703 41.752 6.71367C41.2279 6.88026 40.8446 7.36338 40.6019 8.16303C40.3593 8.95157 40.238 10.251 40.238 12.0613V21.9902C40.238 24.1115 40.3836 25.6108 40.6747 26.4882C40.9756 27.3545 41.5385 27.7876 42.3634 27.7876C43.1883 27.7876 43.7367 27.3545 44.0084 26.4882C44.2801 25.6219 44.416 24.0948 44.416 21.9069V12.028ZM40.238 6.63038C40.7524 5.231 41.718 4.53131 43.1349 4.53131C44.1249 4.53131 44.8673 4.90892 45.3622 5.66414C45.8669 6.40825 46.1969 7.37449 46.3521 8.56285C46.5074 9.7401 46.5851 11.1617 46.5851 12.8276V21.7903C46.5851 21.8236 46.5851 21.8625 46.5851 21.9069C46.5851 25.05 46.226 27.1879 45.5078 28.3207C44.7896 29.4425 43.8094 30.0033 42.5672 30.0033C42.0723 30.0033 41.6064 29.8034 41.1697 29.4036C40.7427 28.9927 40.4321 28.4929 40.238 27.9043V34.1182H38.069V4.71456H40.238V6.63038Z" fill="black"/>
<path d="M61.0377 5.01444L61.0523 5.69747C61.0523 6.89693 61.5957 9.02932 62.6827 12.0946C63.43 11.0284 64.0026 9.98445 64.4005 8.96268C64.8081 7.92981 65.0119 6.78032 65.0119 5.51421C65.0119 4.24811 64.8906 3.34851 64.6479 2.81541C64.4053 2.27121 63.8327 1.99911 62.9302 1.99911C61.7559 1.99911 61.1348 2.77099 61.0668 4.31475C61.0571 4.55908 61.0474 4.72012 61.0377 4.79787C61.0377 4.8645 61.0377 4.93669 61.0377 5.01444ZM67.2974 23.6228C68.6755 26.9325 69.5101 28.9593 69.8013 29.7035H67.9962C67.7438 29.0149 67.2295 27.7599 66.4531 25.9385C65.9678 27.1935 65.468 28.0931 64.9537 28.6373C64.4393 29.1815 63.9249 29.548 63.4106 29.7368C62.9059 29.9367 62.3236 30.0366 61.6637 30.0366C60.3438 30.0366 59.2762 29.5147 58.461 28.4707C57.6458 27.4267 57.2382 25.994 57.2382 24.1726C57.2382 22.3512 57.3983 21.0018 57.7186 20.1244C58.0486 19.247 58.3591 18.4751 58.6503 17.8087C58.9414 17.1424 59.844 15.8319 61.358 13.8772C59.7372 9.72345 58.9269 6.98578 58.9269 5.66415C58.9269 1.89916 60.3147 0.0166626 63.0903 0.0166626C64.711 0.0166626 65.7737 0.505334 66.2784 1.48267C66.7927 2.46002 67.0499 3.82608 67.0499 5.58085C67.0499 7.33563 66.7103 8.86828 66.0309 10.1788C65.3613 11.4782 64.5169 12.8498 63.4979 14.2936C64.187 16.1151 65.1138 18.4029 66.2784 21.1573C67.0645 19.2692 67.9282 17.6921 68.8696 16.426L69.8741 18.2086C69.0006 19.4525 68.1417 21.2572 67.2974 23.6228ZM65.3758 23.4396C63.9589 20.1744 62.9156 17.7255 62.246 16.0928C61.4308 17.3367 60.7611 18.5973 60.237 19.8745C59.713 21.1517 59.4461 22.6122 59.4364 24.2559C59.4364 26.7215 60.2662 27.9542 61.9257 27.9542C62.838 27.9542 63.6047 27.3434 64.2258 26.1217C64.5363 25.4887 64.9197 24.5946 65.3758 23.4396Z" fill="black"/>
<path d="M90.2807 0.383179H92.7118V29.7035H90.7466V17.1424L91.0814 5.33098L87.4275 29.0704H85.3603L81.5754 5.33098L81.9102 17.1424V29.7035H79.9304V0.383179H82.3615L86.3939 25.0055L90.2807 0.383179Z" fill="black"/>
<path d="M98.89 4.71457H101.074V29.7035H98.89V4.71457ZM98.89 0.0166626H101.059V2.41559H98.89V0.0166626Z" fill="black"/>
<path d="M109.421 7.16345C109.615 6.41934 110.042 5.77518 110.702 5.23098C111.372 4.67567 112.158 4.39801 113.06 4.39801C113.963 4.39801 114.705 4.8256 115.288 5.68078C115.87 6.53595 116.161 7.81872 116.161 9.52907V29.7035H113.992V9.32916C113.992 8.36292 113.798 7.66878 113.41 7.24675C113.031 6.81361 112.522 6.59704 111.881 6.59704C110.241 6.59704 109.421 7.5244 109.421 9.37913V29.7035H107.252V4.71454H109.421V7.16345Z" fill="black"/>
<path d="M128.089 12.4278C128.089 10.2843 127.944 8.78498 127.653 7.92981C127.371 7.06353 126.818 6.63039 125.993 6.63039C125.168 6.63039 124.615 7.07463 124.334 7.96313C124.052 8.84051 123.911 10.3676 123.911 12.5444V22.44C123.911 24.7279 124.067 26.1939 124.377 26.8381C124.697 27.4822 125.168 27.8043 125.789 27.8043C126.41 27.8043 126.852 27.6766 127.114 27.4211C127.386 27.1546 127.614 26.7159 127.798 26.1051C127.992 25.4831 128.089 24.2725 128.089 22.4733V12.4278ZM128.075 0H130.258V29.7035H128.075V27.8043C127.57 29.1926 126.604 29.8867 125.178 29.8867C123.557 29.8756 122.528 28.7705 122.092 26.5715C121.849 25.3609 121.728 23.7339 121.728 21.6904V12.9109C121.728 9.55686 122.077 7.30231 122.776 6.14727C123.484 4.99222 124.479 4.4147 125.76 4.4147C126.255 4.4147 126.711 4.62017 127.129 5.0311C127.556 5.43092 127.871 5.91959 128.075 6.49711V0Z" fill="black"/>
<path fill-rule="evenodd" clip-rule="evenodd" d="M153.384 8.01443L159.709 15.252C160.097 15.6962 160.097 16.4162 159.709 16.8604L153.384 24.0979C152.996 24.5421 152.367 24.5421 151.979 24.0979C151.591 23.6538 151.591 22.9337 151.979 22.4896L156.607 17.1935H139.13V14.9189H156.607L151.979 9.62278C151.591 9.17865 151.591 8.45857 151.979 8.01443C152.367 7.5703 152.996 7.5703 153.384 8.01443Z" fill="#EFC224"/>
<path d="M3.97516 14.9189H0V17.1934H3.97516V14.9189Z" fill="#EFC224"/>
</g>
<defs>
<clipPath id="clip0_275_4">
<rect width="160" height="35" fill="white"/>
</clipPath>
</defs>
</svg>
