<svg width="160" height="35" viewBox="0 0 160 35" fill="none" xmlns="http://www.w3.org/2000/svg">
<g clip-path="url(#clip0_226_92)">
<path d="M7.53906 0.383179H14.7741V2.31566H12.3721V29.7035H10.2176V2.31566H7.53906V0.383179Z" fill="white"/>
<path d="M25.0868 4.41467C25.1256 4.41467 25.145 4.59237 25.145 4.94777C25.145 5.30317 25.1402 5.65857 25.1305 6.01396V6.5304C24.3638 6.5304 23.6844 6.7081 23.0924 7.0635C22.5101 7.40779 21.9376 8.03529 21.3747 8.94599V29.7035H19.2056V4.71454H21.3747V7.49664C21.627 6.51929 22.0686 5.76407 22.6994 5.23098C23.3399 4.68678 24.1357 4.41467 25.0868 4.41467Z" fill="white"/>
<path d="M29.707 4.71451H31.8906V29.7034H29.707V4.71451ZM29.707 0.0166016H31.876V2.41553H29.707V0.0166016Z" fill="white"/>
<path d="M44.4158 12.0281C44.4158 10.0734 44.343 8.85722 44.1974 8.37966C44.0616 7.89099 43.8966 7.4745 43.7025 7.13021C43.5084 6.78592 43.1881 6.61378 42.7417 6.61378C42.2953 6.61378 41.9653 6.64709 41.7518 6.71373C41.2277 6.88032 40.8444 7.36344 40.6017 8.16309C40.3591 8.95163 40.2378 10.2511 40.2378 12.0614V21.9903C40.2378 24.1116 40.3834 25.6109 40.6745 26.4883C40.9754 27.3546 41.5383 27.7877 42.3632 27.7877C43.1881 27.7877 43.7365 27.3546 44.0082 26.4883C44.2799 25.622 44.4158 24.0949 44.4158 21.907V12.0281ZM40.2378 6.63044C40.7522 5.23106 41.7178 4.53137 43.1347 4.53137C44.1247 4.53137 44.8671 4.90898 45.362 5.6642C45.8667 6.40831 46.1967 7.37455 46.3519 8.56291C46.5072 9.74016 46.5849 11.1618 46.5849 12.8277V21.7904C46.5849 21.8237 46.5849 21.8626 46.5849 21.907C46.5849 25.0501 46.2258 27.188 45.5076 28.3208C44.7894 29.4426 43.8092 30.0034 42.567 30.0034C42.0721 30.0034 41.6062 29.8035 41.1695 29.4037C40.7425 28.9928 40.4319 28.493 40.2378 27.9044V34.1182H38.0688V4.71462H40.2378V6.63044Z" fill="white"/>
<path d="M61.0378 5.01438L61.0524 5.69741C61.0524 6.89687 61.5958 9.02926 62.6828 12.0945C63.4301 11.0283 64.0027 9.98439 64.4006 8.96262C64.8082 7.92975 65.012 6.78026 65.012 5.51415C65.012 4.24805 64.8907 3.34845 64.648 2.81535C64.4054 2.27115 63.8328 1.99905 62.9303 1.99905C61.756 1.99905 61.1349 2.77093 61.0669 4.31469C61.0572 4.55902 61.0475 4.72006 61.0378 4.79781C61.0378 4.86444 61.0378 4.93663 61.0378 5.01438ZM67.2975 23.6227C68.6756 26.9324 69.5102 28.9592 69.8014 29.7034H67.9963C67.7439 29.0148 67.2296 27.7598 66.4532 25.9384C65.9679 27.1934 65.4681 28.093 64.9538 28.6372C64.4394 29.1814 63.925 29.5479 63.4107 29.7367C62.906 29.9366 62.3237 30.0365 61.6638 30.0365C60.3439 30.0365 59.2763 29.5146 58.4611 28.4706C57.6459 27.4266 57.2383 25.9939 57.2383 24.1725C57.2383 22.3511 57.3984 21.0017 57.7187 20.1243C58.0487 19.2469 58.3592 18.475 58.6504 17.8086C58.9415 17.1423 59.8441 15.8318 61.3581 13.8771C59.7373 9.72339 58.927 6.98572 58.927 5.66409C58.927 1.8991 60.3148 0.0166016 63.0904 0.0166016C64.7111 0.0166016 65.7738 0.505273 66.2785 1.48261C66.7928 2.45996 67.05 3.82602 67.05 5.58079C67.05 7.33557 66.7104 8.86822 66.031 10.1787C65.3614 11.4781 64.517 12.8497 63.498 14.2935C64.1871 16.115 65.1139 18.4028 66.2785 21.1572C67.0646 19.2691 67.9283 17.692 68.8697 16.4259L69.8742 18.2085C69.0007 19.4524 68.1418 21.2571 67.2975 23.6227ZM65.3759 23.4395C63.959 20.1743 62.9157 17.7254 62.2461 16.0927C61.4309 17.3366 60.7612 18.5972 60.2371 19.8744C59.7131 21.1516 59.4462 22.6121 59.4365 24.2558C59.4365 26.7214 60.2663 27.9541 61.9258 27.9541C62.8381 27.9541 63.6048 27.3433 64.2259 26.1216C64.5364 25.4886 64.9198 24.5945 65.3759 23.4395Z" fill="white"/>
<path d="M90.2805 0.383179H92.7116V29.7035H90.7464V17.1424L91.0812 5.33098L87.4273 29.0704H85.3601L81.5752 5.33098L81.91 17.1424V29.7035H79.9302V0.383179H82.3613L86.3937 25.0055L90.2805 0.383179Z" fill="white"/>
<path d="M98.8901 4.71451H101.074V29.7034H98.8901V4.71451ZM98.8901 0.0166016H101.059V2.41553H98.8901V0.0166016Z" fill="white"/>
<path d="M109.421 7.16351C109.615 6.4194 110.042 5.77524 110.702 5.23104C111.372 4.67573 112.158 4.39807 113.06 4.39807C113.963 4.39807 114.705 4.82566 115.288 5.68084C115.87 6.53601 116.161 7.81878 116.161 9.52913V29.7035H113.992V9.32922C113.992 8.36298 113.798 7.66884 113.41 7.24681C113.031 6.81367 112.522 6.5971 111.881 6.5971C110.241 6.5971 109.421 7.52446 109.421 9.37919V29.7035H107.252V4.7146H109.421V7.16351Z" fill="white"/>
<path d="M128.089 12.4278C128.089 10.2843 127.944 8.78498 127.653 7.92981C127.371 7.06353 126.818 6.63039 125.993 6.63039C125.168 6.63039 124.615 7.07463 124.334 7.96313C124.052 8.84051 123.911 10.3676 123.911 12.5444V22.44C123.911 24.7279 124.067 26.1939 124.377 26.8381C124.697 27.4822 125.168 27.8043 125.789 27.8043C126.41 27.8043 126.852 27.6766 127.114 27.4211C127.386 27.1546 127.614 26.7159 127.798 26.1051C127.992 25.4831 128.089 24.2725 128.089 22.4733V12.4278ZM128.075 0H130.258V29.7035H128.075V27.8043C127.57 29.1926 126.604 29.8867 125.178 29.8867C123.557 29.8756 122.528 28.7705 122.092 26.5715C121.849 25.3609 121.728 23.7339 121.728 21.6904V12.9109C121.728 9.55686 122.077 7.30231 122.776 6.14727C123.484 4.99222 124.479 4.4147 125.76 4.4147C126.255 4.4147 126.711 4.62017 127.129 5.0311C127.556 5.43092 127.871 5.91959 128.075 6.49711V0Z" fill="white"/>
<path fill-rule="evenodd" clip-rule="evenodd" d="M153.384 8.01449L159.709 15.252C160.097 15.6962 160.097 16.4162 159.709 16.8604L153.384 24.0979C152.996 24.5421 152.367 24.5421 151.979 24.0979C151.591 23.6538 151.591 22.9337 151.979 22.4896L156.607 17.1935H139.13V14.9189H156.607L151.979 9.62284C151.591 9.17871 151.591 8.45863 151.979 8.01449C152.367 7.57036 152.996 7.57036 153.384 8.01449Z" fill="#EFC224"/>
<path d="M3.97516 14.9189H0V17.1934H3.97516V14.9189Z" fill="#EFC224"/>
</g>
<defs>
<clipPath id="clip0_226_92">
<rect width="160" height="35" fill="white"/>
</clipPath>
</defs>
</svg>
